HIERARCHY
ROOT Hips
{
	OFFSET -0.001795 -0.223333 0.028219
	CHANNELS 6 Xposition Yposition Zposition Zrotation Yrotation Xrotation 
	JOINT LeftUpLeg
	{
		OFFSET 0.069520 -0.091406 -0.006815
		CHANNELS 3 Zrotation Yrotation Xrotation
		JOINT LeftLeg
		{
			OFFSET 0.034277 -0.375199 -0.004496
			CHANNELS 3 Zrotation Yrotation Xrotation
			JOINT LeftFoot
			{
				OFFSET -0.013596 -0.397961 -0.043693
				CHANNELS 3 Zrotation Yrotation Xrotation
				JOINT LeftToe
				{
					OFFSET 0.026358 -0.055791 0.119288
					CHANNELS 3 Zrotation Yrotation Xrotation
					End Site
					{
						OFFSET 0.000000 0.000000 0.000000
					}
				}
			}
		}
	}
	JOINT RightUpLeg
	{
		OFFSET -0.067670 -0.090522 -0.004320
		CHANNELS 3 Zrotation Yrotation Xrotation
		JOINT RightLeg
		{
			OFFSET -0.038290 -0.382569 -0.008850
			CHANNELS 3 Zrotation Yrotation Xrotation
			JOINT RightFoot
			{
				OFFSET 0.015774 -0.398415 -0.042312
				CHANNELS 3 Zrotation Yrotation Xrotation
				JOINT RightToe
				{
					OFFSET -0.025372 -0.048144 0.123348
					CHANNELS 3 Zrotation Yrotation Xrotation
					End Site
					{
						OFFSET 0.000000 0.000000 0.000000
					}
				}
			}
		}
	}
	JOINT Spine
	{
		OFFSET -0.002533 0.108963 -0.026696
		CHANNELS 3 Zrotation Yrotation Xrotation
		JOINT Spine1
		{
			OFFSET 0.005487 0.135180 0.001092
			CHANNELS 3 Zrotation Yrotation Xrotation
			JOINT Spine2
			{
				OFFSET 0.001457 0.052922 0.025425
				CHANNELS 3 Zrotation Yrotation Xrotation
				JOINT Neck
				{
					OFFSET -0.002778 0.213870 -0.042857
					CHANNELS 3 Zrotation Yrotation Xrotation
					JOINT Head
					{
						OFFSET 0.005152 0.064970 0.051349
						CHANNELS 3 Zrotation Yrotation Xrotation
						End Site
						{
							OFFSET 0.000000 0.000000 0.000000
						}
					}
				}
				JOINT LeftShoulder
				{
					OFFSET 0.078845 0.121749 -0.034090
					CHANNELS 3 Zrotation Yrotation Xrotation
					JOINT LeftArm
					{
						OFFSET 0.090977 0.030469 -0.008868
						CHANNELS 3 Zrotation Yrotation Xrotation
						JOINT LeftForeArm
						{
							OFFSET 0.259612 -0.012772 -0.027456
							CHANNELS 3 Zrotation Yrotation Xrotation
							JOINT LeftHand
							{
								OFFSET 0.249234 0.008986 -0.001171
								CHANNELS 3 Zrotation Yrotation Xrotation
								End Site
								{
									OFFSET 0.000000 0.000000 0.000000
								}
							}
						}
					}
				}
				JOINT RightShoulder
				{
					OFFSET -0.081759 0.118833 -0.038615
					CHANNELS 3 Zrotation Yrotation Xrotation
					JOINT RightArm
					{
						OFFSET -0.096012 0.032551 -0.009143
						CHANNELS 3 Zrotation Yrotation Xrotation
						JOINT RightForeArm
						{
							OFFSET -0.253742 -0.013329 -0.021401
							CHANNELS 3 Zrotation Yrotation Xrotation
							JOINT RightHand
							{
								OFFSET -0.255298 0.007772 -0.005559
								CHANNELS 3 Zrotation Yrotation Xrotation
								End Site
								{
									OFFSET 0.000000 0.000000 0.000000
								}
							}
						}
					}
				}
			}
		}
	}
}
MOTION
Frames: 10
Frame Time: 0.050000
0.000000 0.820471 0.000000 7.871307 -5.816731 13.366525 16.325382 3.494001 -47.893881 -6.061182 1.982841 31.496773 -1.062369 -1.086533 2.839117 0.000000 0.000000 0.000000 -22.455408 -1.702468 -39.781615 8.227311 -2.094884 52.941811 -6.593335 -12.202490 -22.928660 0.000000 0.000000 0.000000 8.991225 -3.876520 32.373573 -0.467594 0.247549 -1.679074 -3.126519 14.063382 5.696270 13.814712 -4.088209 -23.818209 0.000000 0.000000 0.000000 -37.966908 -17.040916 2.538595 -30.078340 0.804079 -2.068302 -0.690308 -43.789649 1.405374 0.000000 0.000000 0.000000 21.771757 12.830005 9.739770 23.070385 26.134056 0.695918 -16.822083 46.934126 -3.965550 0.000000 0.000000 0.000000 
0.048445 0.803955 0.008640 6.065499 -10.894367 13.544265 16.478255 5.154908 -48.965845 -8.371241 3.873737 35.332733 0.526105 -0.189860 -3.213881 0.000000 0.000000 0.000000 -25.098423 -1.555504 -44.195865 9.553994 -1.966768 56.795670 -6.606235 -12.228734 -22.212558 0.000000 0.000000 0.000000 10.003700 -3.923831 36.297755 -1.527573 0.661591 -4.611862 -0.451246 14.764880 6.978459 13.702340 -3.686914 -26.584059 0.000000 0.000000 0.000000 -41.010997 -19.583867 5.824278 -28.747343 -2.654176 -1.516118 6.520438 -38.776907 -0.987178 0.000000 0.000000 0.000000 18.576618 13.437212 9.028918 26.542659 25.493654 1.122086 -18.109635 48.936036 -4.556222 0.000000 0.000000 0.000000 
0.096538 0.795282 0.016322 5.252670 -15.165224 12.643317 14.091963 5.630410 -50.665807 -8.560330 5.587276 43.297381 3.168843 4.708865 -6.859540 0.000000 0.000000 0.000000 -26.932548 -0.978570 -44.137706 8.892254 -0.533473 54.637731 -6.587999 -14.209893 -16.140061 0.000000 0.000000 0.000000 11.081879 -3.802130 39.437323 -1.566193 0.680067 -3.359407 -2.263434 12.436353 4.326483 12.727864 -4.309274 -22.662069 0.000000 0.000000 0.000000 -44.175326 -21.378028 9.710963 -23.556505 -4.596356 -1.216982 5.561987 -34.977658 -0.340965 0.000000 0.000000 0.000000 20.978774 16.770636 10.297304 25.474470 21.169411 0.562926 -19.570371 54.397388 -6.589529 0.000000 0.000000 0.000000 
0.139068 0.796962 0.022548 3.994612 -19.933198 14.496261 13.896220 7.402434 -52.707789 -8.756337 7.083466 47.156202 3.856858 5.781717 -9.123927 0.000000 0.000000 0.000000 -29.661549 -0.533586 -46.736151 9.896738 -0.633412 50.552920 -6.618754 -16.773834 -8.888197 0.000000 0.000000 0.000000 10.277354 -2.787405 41.738128 -0.834806 0.395189 -2.367794 -2.043014 12.164834 2.601652 11.645933 -3.688600 -23.412685 0.000000 0.000000 0.000000 -44.189059 -24.032814 13.369039 -24.173378 -8.868303 -0.710974 8.953590 -30.741624 -1.149447 0.000000 0.000000 0.000000 24.163841 17.969101 11.040238 23.081698 20.676424 0.444713 -22.810282 53.748710 -8.386988 0.000000 0.000000 0.000000 
0.175021 0.798718 0.028303 2.868871 -23.653797 15.004878 11.974277 8.190127 -54.943489 -8.351505 8.092182 50.765123 5.768829 10.392033 -8.557766 0.000000 0.000000 0.000000 -33.077262 -0.229288 -46.107548 14.413846 -2.532843 44.167765 -8.239258 -22.949898 -2.763860 0.000000 0.000000 0.000000 9.953950 -1.886638 43.815714 -0.303051 0.159016 -2.686016 -2.228670 11.368552 3.327394 13.231190 -5.100575 -21.662796 0.000000 0.000000 0.000000 -44.637402 -26.417785 17.082294 -21.913148 -11.235334 -0.632882 11.731629 -29.984853 -1.817535 0.000000 0.000000 0.000000 24.807629 19.095318 11.094635 24.892552 18.499572 0.417996 -26.991140 52.550630 -10.480284 0.000000 0.000000 0.000000 
0.203874 0.801746 0.034049 1.260519 -28.008882 15.820892 11.386880 9.623761 -55.720825 -6.921643 8.375463 53.036858 6.359191 11.669745 -8.445243 0.000000 0.000000 0.000000 -35.395832 0.533304 -46.028529 18.225181 -3.652724 42.141287 -9.076372 -25.399159 2.998351 0.000000 0.000000 0.000000 8.409498 -0.122785 46.843265 1.355312 -0.510255 -2.161521 -3.146182 13.188649 1.711990 14.687117 -6.143927 -19.845655 0.000000 0.000000 0.000000 -42.708722 -27.794405 17.084845 -22.584371 -13.566269 -0.102252 11.401132 -30.379910 -1.754571 0.000000 0.000000 0.000000 27.083330 18.662233 11.643826 24.605600 16.877463 0.109919 -29.520353 52.331744 -11.595797 0.000000 0.000000 0.000000 
0.225753 0.803379 0.039284 0.143661 -30.799760 15.883980 9.785470 9.943789 -56.473026 -4.022760 7.194905 54.793043 6.010493 10.785711 -8.693502 0.000000 0.000000 0.000000 -36.637468 1.200726 -44.783818 21.526665 -4.427447 40.167176 -11.310886 -29.889212 7.037278 0.000000 0.000000 0.000000 7.784463 0.918577 47.771059 1.832731 -0.720640 -2.699379 -3.685454 13.220393 2.745018 16.244443 -7.302121 -19.275488 0.000000 0.000000 0.000000 -41.771282 -27.988187 17.509735 -21.654225 -14.196689 -0.181897 13.962927 -31.796286 -2.572855 0.000000 0.000000 0.000000 27.308375 18.891016 11.548432 28.230140 16.290260 0.209062 -30.832184 50.956566 -11.898414 0.000000 0.000000 0.000000 
0.240265 0.804247 0.042714 -1.247848 -33.724699 14.962865 9.738802 10.749950 -55.329305 -2.058529 6.765760 55.832664 6.271254 11.323187 -9.262508 0.000000 0.000000 0.000000 -36.352923 2.101731 -43.043759 23.495685 -4.423331 39.627180 -12.827754 -32.184047 9.841160 0.000000 0.000000 0.000000 6.828527 2.320228 49.289323 2.484714 -1.014910 -3.474169 -4.271674 14.208579 2.755212 17.215578 -8.816320 -15.995530 0.000000 0.000000 0.000000 -39.632644 -27.283927 16.029602 -22.342323 -14.179389 -0.111620 13.558312 -33.485436 -2.662753 0.000000 0.000000 0.000000 30.802494 17.403480 11.178526 29.742172 14.304856 -0.197960 -31.617289 51.851626 -12.568523 0.000000 0.000000 0.000000 
0.247243 0.803671 0.043059 -1.668571 -35.384512 14.851716 9.220418 10.709005 -54.358392 -0.071588 5.745416 55.101569 6.151950 11.103557 -10.405842 0.000000 0.000000 0.000000 -36.680159 2.585861 -41.219621 25.118481 -4.561128 39.122671 -14.849143 -35.324837 11.259334 0.000000 0.000000 0.000000 5.920841 2.822838 47.624276 2.228643 -0.884407 -2.607505 -3.992166 13.323885 2.833503 17.237629 -9.795419 -13.082384 0.000000 0.000000 0.000000 -39.183987 -26.246554 16.055387 -21.550068 -12.667445 -0.530903 15.877787 -34.823795 -3.494806 0.000000 0.000000 0.000000 32.804389 17.613429 10.796782 32.617908 11.773702 -0.521499 -29.764847 52.579138 -12.073899 0.000000 0.000000 0.000000 
0.248142 0.803758 0.039517 -2.335354 -37.509237 14.388606 10.348574 11.632232 -52.613031 -0.506668 6.475009 53.889966 6.644038 12.354952 -10.553649 0.000000 0.000000 0.000000 -36.220179 3.196345 -39.297757 25.801693 -4.179530 38.661059 -16.078264 -36.487375 13.601306 0.000000 0.000000 0.000000 5.238430 3.472302 46.893573 2.545228 -0.983883 -1.820683 -4.173607 13.443412 2.138733 17.924361 -10.820104 -11.222160 0.000000 0.000000 0.000000 -39.564475 -25.890340 16.077387 -19.780758 -11.945130 -0.651582 16.342733 -34.620669 -3.628283 0.000000 0.000000 0.000000 34.705611 16.836326 10.080309 33.965627 8.755885 -1.132468 -27.394525 54.269431 -11.474671 0.000000 0.000000 0.000000 
